<svg width="99" height="99" viewBox="0 0 99 99" fill="none" xmlns="http://www.w3.org/2000/svg">
<path d="M80.7314 19.8008C83.7136 19.801 86.1309 22.219 86.1309 25.2012V49.501C86.1309 65.9038 72.8335 79.2012 56.4307 79.2012C49.7305 79.2011 43.55 76.9804 38.5811 73.2373C36.6319 71.7652 36.6309 70.7798 36.6309 69.3018V64.3506C36.6311 62.1638 38.404 60.3907 40.5908 60.3906H46.5312C52.5455 60.3905 57.4209 55.5153 57.4209 49.501C57.4209 43.4867 52.5455 38.6115 46.5312 38.6113H16.8711C14.6621 38.6113 12.8713 36.8203 12.8711 34.6113V23.8008C12.8712 21.5917 14.662 19.8008 16.8711 19.8008H80.7314ZM70.291 27.7207C65.917 27.7207 62.3713 31.2667 62.3711 35.6406C62.3711 40.0147 65.9169 43.5605 70.291 43.5605C74.6651 43.5605 78.2109 40.0147 78.2109 35.6406C78.2107 31.2667 74.665 27.7207 70.291 27.7207Z" fill="url(#paint0_linear_3110_272)"/>
<defs>
<linearGradient id="paint0_linear_3110_272" x1="12.8711" y1="19.8008" x2="86.1314" y2="79.2005" gradientUnits="userSpaceOnUse">
<stop stop-color="#9084E9"/>
<stop offset="1" stop-color="#534A92"/>
</linearGradient>
</defs>
</svg>
