<svg width="23" height="24" viewBox="0 0 23 24" fill="none" xmlns="http://www.w3.org/2000/svg">
<path d="M0 9.35156C0 8.0625 0.242188 6.85547 0.726562 5.73047C1.21094 4.59766 1.88281 3.60156 2.74219 2.74219C3.60156 1.88281 4.59375 1.21094 5.71875 0.726562C6.85156 0.242188 8.0625 0 9.35156 0C10.6406 0 11.8477 0.242188 12.9727 0.726562C14.1055 1.21094 15.1016 1.88281 15.9609 2.74219C16.8203 3.60156 17.4922 4.59766 17.9766 5.73047C18.4609 6.85547 18.7031 8.0625 18.7031 9.35156C18.7031 10.4219 18.5312 11.4375 18.1875 12.3984C17.8516 13.3594 17.3828 14.2305 16.7812 15.0117L22.5117 20.7773C22.6367 20.9023 22.7305 21.0469 22.793 21.2109C22.8633 21.375 22.8984 21.5508 22.8984 21.7383C22.8984 21.9961 22.8398 22.2305 22.7227 22.4414C22.6133 22.6523 22.457 22.8164 22.2539 22.9336C22.0508 23.0586 21.8164 23.1211 21.5508 23.1211C21.3633 23.1211 21.1836 23.0859 21.0117 23.0156C20.8477 22.9531 20.6953 22.8555 20.5547 22.7227L14.7891 16.9453C14.0234 17.4922 13.1797 17.9219 12.2578 18.2344C11.3359 18.5469 10.3672 18.7031 9.35156 18.7031C8.0625 18.7031 6.85156 18.4609 5.71875 17.9766C4.59375 17.4922 3.60156 16.8203 2.74219 15.9609C1.88281 15.1016 1.21094 14.1094 0.726562 12.9844C0.242188 11.8516 0 10.6406 0 9.35156ZM2.00391 9.35156C2.00391 10.3672 2.19141 11.3203 2.56641 12.2109C2.94922 13.0938 3.47656 13.8711 4.14844 14.543C4.82812 15.2148 5.60938 15.7422 6.49219 16.125C7.38281 16.5078 8.33594 16.6992 9.35156 16.6992C10.3672 16.6992 11.3164 16.5078 12.1992 16.125C13.0898 15.7422 13.8711 15.2148 14.543 14.543C15.2148 13.8711 15.7422 13.0938 16.125 12.2109C16.5078 11.3203 16.6992 10.3672 16.6992 9.35156C16.6992 8.33594 16.5078 7.38672 16.125 6.50391C15.7422 5.61328 15.2148 4.83203 14.543 4.16016C13.8711 3.48047 13.0898 2.95312 12.1992 2.57812C11.3164 2.19531 10.3672 2.00391 9.35156 2.00391C8.33594 2.00391 7.38281 2.19531 6.49219 2.57812C5.60938 2.95312 4.82812 3.48047 4.14844 4.16016C3.47656 4.83203 2.94922 5.61328 2.56641 6.50391C2.19141 7.38672 2.00391 8.33594 2.00391 9.35156Z" fill="currentColor"/>
</svg>
